<svg xmlns="http://www.w3.org/2000/svg" x="0px" y="0px" viewBox="0 0 32.1 36.7" enable-background="new 0 0 32.1 36.7" preserveAspectRatio="xMidYMid meet">
  <g>
    <path fill-rule="evenodd" clip-rule="evenodd" fill="#303f9f" d="M27.7,0c-3.3,0.8-5.9,1.8-7,3c3.8,0,7.6,0,11.4,0v3.2c-4.3,1.7-17,2.3-19.6,3.1c-0.2-0.4-0.3-0.9-0.4-1.3V7.3c0.2-2.5,3.4-4.9,8.8-6.3C23.1,0.5,25.4,0.1,27.7,0L27.7,0z M25.3,33.8h-4c3.3-2,5.4-4.3,6-6.7C28.8,29.4,28.5,31.8,25.3,33.8z"/>
  </g>
  <g>
    <path fill-rule="evenodd" clip-rule="evenodd" fill="#3f51b5" d="M32.1,6.2v27.6h-6.8c1.9-2.1,2.6-4.4,2-6.7c0.7-2.9-0.5-5.9-4.1-8.7c-2.9-2.2-5.8-4.5-8.6-6.7c-0.5-0.4-0.9-0.7-1.2-1.1C13,10,12.7,9.6,12.5,9.2c1-2,4-3.8,8.4-5c2.2-0.6,4.5-0.9,6.8-1c-3.3,0.8-5.9,1.8-7,3C24.5,6.2,28.3,6.2,32.1,6.2z"/>
  </g>
  <g>
    <path fill-rule="evenodd" clip-rule="evenodd" fill="#d32f2f" d="M0,6.2V3h10.8c-1.7,1-3,2.1-4,3.2L2.1,7.7L0,6.2L0,6.2z M4.8,12.9c0.5,1.9,1.8,3.8,4.1,5.5c2.9,2.2,5.8,4.5,8.6,6.7c0.5,0.4,0.9,0.7,1.2,1.1c1.3,1.5,1.5,3,0.8,4.4C11.1,27.6-3,24.7,4.8,12.9z"/>
  </g>
  <g>
    <path fill-rule="evenodd" clip-rule="evenodd" fill="#ff5252" d="M4.4,36.7c3.3-0.8,5.9-1.8,7-3c-3.8,0-7.6,0-11.4,0V6.2h6.8c-1.9,2.1-2.6,4.4-2,6.7c-0.8,2.9,0.5,5.9,4.1,8.7c2.9,2.2,5.8,4.5,8.6,6.7c0.5,0.4,0.9,0.7,1.2,1.1c0.4,0.4,0.6,0.8,0.8,1.2c-1,2-4,3.8-8.4,5C9,36.3,6.7,36.6,4.4,36.7z"/>
  </g>
</svg>
